<svg fill="#000000" height="64px" width="64px" version="1.1" id="Capa_1" xmlns="http://www.w3.org/2000/svg" xmlns:xlink="http://www.w3.org/1999/xlink" viewBox="-29.76 -29.76 357.13 357.13" xml:space="preserve" transform="rotate(0)">

<g id="SVGRepo_bgCarrier" stroke-width="0"/>

<g id="SVGRepo_tracerCarrier" stroke-linecap="round" stroke-linejoin="round" stroke="#CCCCCC" stroke-width="3.571356"/>

<g id="SVGRepo_iconCarrier"> <g> <circle cx="15.279" cy="14.83" r="14.83"/> <circle cx="59.32" cy="59.769" r="14.83"/> <circle cx="59.32" cy="14.83" r="14.83"/> <circle cx="104.261" cy="59.769" r="14.83"/> <circle cx="104.261" cy="103.81" r="14.83"/> <circle cx="104.261" cy="14.83" r="14.83"/> <circle cx="148.302" cy="59.769" r="14.83"/> <circle cx="148.302" cy="103.81" r="14.83"/> <circle cx="148.302" cy="14.83" r="14.83"/> <circle cx="192.343" cy="59.769" r="14.83"/> <circle cx="192.343" cy="103.81" r="14.83"/> <circle cx="148.302" cy="147.852" r="14.83"/> <circle cx="192.343" cy="147.852" r="14.83"/> <circle cx="104.261" cy="192.79" r="14.831"/> <circle cx="148.302" cy="192.79" r="14.831"/> <circle cx="192.343" cy="192.79" r="14.831"/> <circle cx="59.32" cy="236.887" r="14.83"/> <circle cx="104.261" cy="236.887" r="14.83"/> <circle cx="148.302" cy="236.887" r="14.83"/> <circle cx="192.343" cy="236.887" r="14.83"/> <circle cx="238.238" cy="103.81" r="14.83"/> <circle cx="238.238" cy="147.852" r="14.83"/> <circle cx="238.238" cy="192.79" r="14.831"/> <circle cx="15.279" cy="282.782" r="14.831"/> <circle cx="59.32" cy="282.782" r="14.831"/> <circle cx="104.261" cy="282.782" r="14.831"/> <circle cx="148.302" cy="282.782" r="14.831"/> <circle cx="282.334" cy="147.852" r="14.83"/> </g> </g>

</svg>